<svg width="29" height="38" viewBox="0 0 29 38" fill="none" xmlns="http://www.w3.org/2000/svg">
<path d="M0 2.28001C0 1.02065 1.02025 0 2.2791 0H18.9925L28.4887 7.97998V35.72C28.4887 36.9793 27.4685 38 26.2096 38H2.2791C1.02025 38 0 36.9793 0 35.72V2.28001Z" fill="#42A5F5"/>
<path d="M18.9924 0V5.69998C18.9924 6.95933 20.0127 7.97998 21.2715 7.97998H28.4887" fill="#1E88E5"/>
<path d="M6.39919 26.8254H4.16699V18.5942H6.25675C8.37024 18.5942 10.3888 19.2712 10.3888 22.6691C10.3888 26.0167 8.45332 26.8254 6.39919 26.8254ZM6.54163 20.0192H6.13804V25.4003H6.54163C7.62186 25.4003 8.34588 24.8185 8.34588 22.6679C8.34651 20.4717 7.57496 20.0192 6.54163 20.0192Z" fill="white"/>
<path d="M14.2458 27.0275C12.0848 27.0275 10.9447 25.3775 10.9447 22.705C10.9447 20.0919 12.0848 18.3813 14.2458 18.3813C16.4068 18.3813 17.5463 20.0325 17.5463 22.705C17.5463 25.3169 16.4068 27.0275 14.2458 27.0275ZM14.2458 19.8176C13.3312 19.8176 12.9638 20.685 12.9638 22.7044C12.9638 24.7225 13.3437 25.59 14.2458 25.59C15.1835 25.59 15.5278 24.6994 15.5278 22.7044C15.5278 20.6851 15.1593 19.8176 14.2458 19.8176Z" fill="white"/>
<path d="M23.7422 20.4356C23.2911 20.0675 22.8157 19.8413 22.1872 19.8413C21.0601 19.8413 20.2517 20.685 20.2517 22.6924C20.2517 24.6643 21.012 25.5068 22.1403 25.5068C22.9469 25.5068 23.4585 25.1737 23.9209 24.818L24.8111 25.958C24.2057 26.5399 23.3148 27.0273 22.0092 27.0273C19.742 27.0273 18.1976 25.5186 18.1976 22.6917C18.1976 19.9355 19.8481 18.3799 22.0448 18.3799C23.2318 18.3799 24.0147 18.7367 24.7031 19.2949L23.7422 20.4356Z" fill="white"/>
</svg>
