<svg width="29" height="38" viewBox="0 0 29 38" fill="none" xmlns="http://www.w3.org/2000/svg">
<path d="M0 2.28001C0 1.02065 1.03856 0 2.32 0H19.3333L28.9999 7.97998V35.72C28.9999 36.9793 27.9614 38 26.68 38H2.32C1.03856 38 0 36.9793 0 35.72V2.28001Z" fill="#FFC700"/>
<path fill-rule="evenodd" clip-rule="evenodd" d="M5.78601 16.4012V18.5636H8.37387V19.9768H5.78601V23.2311H4V15H8.88703L8.70528 16.4012H5.78601ZM9.21345 15H14.047V16.4363H12.5182V21.7818H14.047V23.2306H9.21345V21.7818H10.7429V16.4363H9.21345V15ZM22.899 18.5636V16.4012H25.8183L26 15H21.113V23.2311H21.1134L21.113 23.2314H26L25.8183 21.8302H22.899V19.9768H25.4868V18.5636H22.899ZM15.5182 15V23.2311V23.2312H20.3191L20.5015 21.6762H17.2935V15H15.5182Z" fill="white"/>
<path d="M19.3333 0V5.70061C19.3333 6.95996 20.3718 7.98061 21.6533 7.98061H28.9999" fill="#D99C00"/>
</svg>
