<svg width="14" height="13" viewBox="0 0 14 13" fill="none" xmlns="http://www.w3.org/2000/svg">
<path d="M14 7.37931V12.037H10.9987V7.69147C10.9987 6.60034 10.5654 5.8552 9.47867 5.8552C8.64939 5.8552 8.15674 6.35686 7.93918 6.84261C7.86017 7.01621 7.8398 7.25727 7.8398 7.50075V12.0368H4.83827C4.83827 12.0368 4.87856 4.67687 4.83827 3.91501H7.84003V5.06595C7.83398 5.07502 7.82548 5.08388 7.82011 5.09254H7.84003V5.06595C8.23889 4.51374 8.95021 3.7243 10.545 3.7243C12.5196 3.7243 14 4.8851 14 7.37931ZM1.69841 0C0.671708 0 0 0.606384 0 1.40308C0 2.18286 0.652235 2.80676 1.65901 2.80676H1.67849C2.72533 2.80676 3.37622 2.18286 3.37622 1.40308C3.3563 0.606384 2.72533 0 1.69841 0ZM0.178391 12.037H3.17881V3.91501H0.178391V12.037Z" fill="#007AB9" />
</svg>
