<svg width="29" height="38" viewBox="0 0 29 38" fill="none" xmlns="http://www.w3.org/2000/svg">
<path d="M0 2.28001C0 1.02065 1.02025 0 2.2791 0H18.9925L28.4887 7.97998V35.72C28.4887 36.9793 27.4685 38 26.2096 38H2.2791C1.02025 38 0 36.9793 0 35.72V2.28001Z" fill="#EF5350"/>
<path d="M18.9924 0V5.69998C18.9924 6.95933 20.0127 7.97998 21.2715 7.97998H28.4887" fill="#D32F2F"/>
<path d="M7.14647 24.0938H6.2562V26.8256H4.28516V18.5945H6.88532C9.12942 18.5945 10.4114 19.4733 10.4114 21.2788C10.4108 23.2156 9.09324 24.0938 7.14647 24.0938ZM6.90912 19.9957H6.25628V22.6682H6.98038C7.87064 22.6682 8.38104 22.2401 8.38104 21.2782C8.38104 20.4119 7.89437 19.9957 6.90912 19.9957Z" fill="white"/>
<path d="M13.5217 26.8256H11.2895V18.5945H13.3793C15.4934 18.5945 17.5107 19.2714 17.5107 22.6694C17.5108 26.0169 15.5753 26.8256 13.5217 26.8256ZM13.6636 20.0194H13.26V25.4006H13.6636C14.7438 25.4006 15.4678 24.8187 15.4678 22.6682C15.469 20.4719 14.6969 20.0194 13.6636 20.0194Z" fill="white"/>
<path d="M20.9407 19.9957V22.1581H23.8139V23.5713H20.9407V26.8256H18.9577V18.5945H24.3836L24.1818 19.9957H20.9407Z" fill="white"/>
</svg>
