<svg width="49" height="49" viewBox="0 0 49 49" fill="none" xmlns="http://www.w3.org/2000/svg">
    <circle cx="24.5" cy="24.5" r="24.5" fill="#26A69A"/>
    <path d="M29.4452 27.5692C28.8245 26.9564 28.0495 26.9564 27.4327 27.5692C26.9622 28.0358 26.4917 28.5023 26.0291 28.9768C25.9026 29.1073 25.7958 29.1349 25.6416 29.0479C25.3372 28.8819 25.013 28.7475 24.7204 28.5656C23.3563 27.7076 22.2137 26.6045 21.2015 25.363C20.6994 24.7462 20.2526 24.0859 19.9402 23.3426C19.877 23.1923 19.8888 23.0935 20.0114 22.9709C20.4819 22.5162 20.9405 22.0497 21.4031 21.5831C22.0476 20.9347 22.0476 20.1756 21.3992 19.5232C21.0315 19.1515 20.6638 18.7878 20.2961 18.4161C19.9165 18.0366 19.5409 17.653 19.1574 17.2774C18.5366 16.6725 17.7617 16.6725 17.1449 17.2814C16.6704 17.7479 16.2157 18.2263 15.7334 18.685C15.2866 19.108 15.0612 19.626 15.0138 20.2309C14.9386 21.2154 15.1798 22.1446 15.5199 23.05C16.2157 24.9241 17.2754 26.5887 18.5603 28.1148C20.2961 30.1787 22.3679 31.8117 24.7916 32.9899C25.8828 33.5197 27.0136 33.927 28.2432 33.9942C29.0894 34.0416 29.8248 33.8281 30.4139 33.1678C30.8172 32.7171 31.2719 32.3059 31.6989 31.8749C32.3315 31.2344 32.3354 30.4595 31.7068 29.8268C30.9556 29.0717 30.2004 28.3204 29.4452 27.5692Z" fill="white"/>
    <path d="M28.69 24.418L30.149 24.1689C29.9196 22.8285 29.287 21.6147 28.3262 20.65C27.3101 19.6339 26.0251 18.9933 24.6097 18.7957L24.4041 20.2625C25.4993 20.4167 26.4956 20.9109 27.2824 21.6978C28.0258 22.4411 28.5121 23.3821 28.69 24.418Z" fill="white"/>
    <path d="M30.9715 18.0761C29.2871 16.3917 27.156 15.3282 24.8035 15L24.5979 16.4669C26.6302 16.7515 28.4726 17.6728 29.9276 19.1238C31.3075 20.5037 32.213 22.2474 32.5411 24.165L34.0001 23.9159C33.6166 21.6938 32.5688 19.6774 30.9715 18.0761Z" fill="white"/>
</svg>
