<svg width="29" height="38" viewBox="0 0 29 38" fill="none" xmlns="http://www.w3.org/2000/svg">
<path d="M0 2.28001C0 1.02065 1.03856 0 2.32 0H19.3333L28.9999 7.97998V35.72C28.9999 36.9793 27.9614 38 26.68 38H2.32C1.03856 38 0 36.9793 0 35.72V2.28001Z" fill="#EC50EF"/>
<path d="M19.3332 0V5.70061C19.3332 6.95996 20.3717 7.98061 21.6532 7.98061H28.9998" fill="#D32F9B"/>
<path d="M7.2744 24.0938H6.36816V26.8256H4.3623V18.5945H7.00912C9.2935 18.5945 10.5985 19.4733 10.5985 21.2788C10.5985 23.2156 9.25667 24.0938 7.2744 24.0938ZM7.03336 19.9963H6.36816V22.6682H7.10581C8.01205 22.6682 8.53161 22.2401 8.53161 21.2788C8.53169 20.4114 8.03685 19.9963 7.03336 19.9963Z" fill="white"/>
<path d="M14.5244 24.0938H13.6182V26.8256H11.6123V18.5945H14.2591C16.5435 18.5945 17.8485 19.4733 17.8485 21.2788C17.8485 23.2156 16.5067 24.0938 14.5244 24.0938ZM14.2834 19.9963H13.6182V22.6682H14.3558C15.2621 22.6682 15.7816 22.2401 15.7816 21.2788C15.7817 20.4114 15.2868 19.9963 14.2834 19.9963Z" fill="white"/>
<path d="M21.6056 27.0275C20.0825 27.0275 18.9473 26.5056 18.258 25.84L19.2729 24.7362C19.8898 25.2694 20.6396 25.5663 21.5337 25.5663C22.3547 25.5663 22.9106 25.1987 22.9106 24.5688C22.9106 23.9751 22.5602 23.7144 21.4002 23.3569C19.4783 22.7632 18.7419 22.0151 18.7419 20.7794C18.7419 19.2583 20.1671 18.3801 21.9077 18.3801C23.1777 18.3801 24.1673 18.772 24.8929 19.4489L23.9498 20.5182C23.3819 20.0557 22.7167 19.8294 22.0643 19.8294C21.3151 19.8294 20.8184 20.102 20.8184 20.625C20.8184 21.1481 21.1936 21.3494 22.4745 21.7525C24.07 22.2631 25.0004 22.9044 25.0004 24.4131C25.0016 25.9581 23.7214 27.0275 21.6056 27.0275Z" fill="white"/>
</svg>
