<svg width="14" height="12" viewBox="0 0 14 12" fill="none" xmlns="http://www.w3.org/2000/svg">
<path d="M14 1.32323C13.4851 1.54756 12.9311 1.69928 12.3502 1.76704C12.9433 1.41793 13.3985 0.865528 13.6134 0.206228C13.0584 0.52967 12.4434 0.764308 11.7894 0.890781C11.2655 0.342592 10.519 0 9.69234 0C8.10637 0 6.82007 1.26368 6.82007 2.82175C6.82007 3.04292 6.84556 3.2582 6.89482 3.46485C4.50773 3.34721 2.39117 2.2239 0.974418 0.516202C0.727225 0.932868 0.585422 1.41793 0.585422 1.93497C0.585422 2.91371 1.09287 3.77777 1.86315 4.28366C1.39255 4.26914 0.949356 4.14224 0.562288 3.93033C0.562073 3.94233 0.562073 3.95432 0.562073 3.96611C0.562073 5.33332 1.55256 6.47368 2.86628 6.73273C2.62551 6.79754 2.37125 6.83184 2.1097 6.83184C1.9242 6.83184 1.74448 6.81437 1.56926 6.78155C1.9347 7.90233 2.99523 8.7182 4.25239 8.74114C3.26919 9.49808 2.03088 9.94905 0.684813 9.94905C0.453471 9.94905 0.224272 9.93579 0 9.90948C1.27045 10.7104 2.78059 11.1774 4.40255 11.1774C9.6857 11.1774 12.5749 6.87772 12.5749 3.14856C12.5749 3.0263 12.5721 2.90445 12.5665 2.78366C13.1282 2.38594 13.6151 1.88909 14 1.32323Z" fill="white"/>
</svg>
