<svg width="49" height="49" viewBox="0 0 49 49" fill="none" xmlns="http://www.w3.org/2000/svg">
    <circle cx="24.5" cy="24.5" r="24.5" fill="#42A5F5"/>
    <path d="M24.5 14C25.4639 14 26.3936 14.123 27.2891 14.3691C28.1846 14.6152 29.022 14.9673 29.8013 15.4253C30.5806 15.8833 31.2881 16.4302 31.9238 17.0659C32.5596 17.7017 33.1064 18.4126 33.5645 19.1987C34.0225 19.9849 34.3745 20.8223 34.6206 21.7109C34.8667 22.5996 34.9932 23.5293 35 24.5C35 25.4639 34.877 26.3936 34.6309 27.2891C34.3848 28.1846 34.0327 29.022 33.5747 29.8013C33.1167 30.5806 32.5698 31.2881 31.9341 31.9238C31.2983 32.5596 30.5874 33.1064 29.8013 33.5645C29.0151 34.0225 28.1777 34.3745 27.2891 34.6206C26.4004 34.8667 25.4707 34.9932 24.5 35C23.5361 35 22.6064 34.877 21.7109 34.6309C20.8154 34.3848 19.978 34.0327 19.1987 33.5747C18.4194 33.1167 17.7119 32.5698 17.0762 31.9341C16.4404 31.2983 15.8936 30.5874 15.4355 29.8013C14.9775 29.0151 14.6255 28.1812 14.3794 27.2993C14.1333 26.4175 14.0068 25.4844 14 24.5C14 23.5361 14.123 22.6064 14.3691 21.7109C14.6152 20.8154 14.9673 19.978 15.4253 19.1987C15.8833 18.4194 16.4302 17.7119 17.0659 17.0762C17.7017 16.4404 18.4126 15.8936 19.1987 15.4355C19.9849 14.9775 20.8188 14.6255 21.7007 14.3794C22.5825 14.1333 23.5156 14.0068 24.5 14ZM32.7954 20.5625C32.5356 20.0088 32.2212 19.4893 31.8521 19.0039C31.4829 18.5186 31.0728 18.0708 30.6216 17.6606C30.1704 17.2505 29.6816 16.8916 29.1553 16.584C28.6289 16.2764 28.0786 16.02 27.5044 15.8149C27.7505 16.1567 27.9727 16.519 28.1709 16.9019C28.3691 17.2847 28.5435 17.6777 28.6938 18.0811C28.8442 18.4844 28.9775 18.8979 29.0938 19.3218C29.21 19.7456 29.3057 20.1592 29.3809 20.5625H32.7954ZM33.6875 24.5C33.6875 23.5908 33.561 22.7158 33.3081 21.875H29.5859C29.6406 22.3125 29.6816 22.7466 29.709 23.1772C29.7363 23.6079 29.75 24.0488 29.75 24.5C29.75 24.9443 29.7363 25.3818 29.709 25.8125C29.6816 26.2432 29.6406 26.6807 29.5859 27.125H33.3081C33.561 26.2842 33.6875 25.4092 33.6875 24.5ZM24.5 33.6875C24.835 33.6875 25.146 33.5952 25.4331 33.4106C25.7202 33.2261 25.9902 32.9834 26.2432 32.6826C26.4961 32.3818 26.7148 32.0435 26.8994 31.6675C27.084 31.2915 27.2583 30.9053 27.4224 30.5088C27.5864 30.1123 27.7129 29.7363 27.8018 29.3809C27.8906 29.0254 27.9692 28.7109 28.0376 28.4375H20.9624C21.0171 28.7041 21.0957 29.0186 21.1982 29.3809C21.3008 29.7432 21.4272 30.1191 21.5776 30.5088C21.728 30.8984 21.8989 31.2812 22.0903 31.6572C22.2817 32.0332 22.5039 32.375 22.7568 32.6826C23.0098 32.9902 23.2764 33.2329 23.5566 33.4106C23.8369 33.5884 24.1514 33.6807 24.5 33.6875ZM28.2632 27.125C28.3179 26.6875 28.3589 26.2534 28.3862 25.8228C28.4136 25.3921 28.4307 24.9512 28.4375 24.5C28.4375 24.0557 28.4238 23.6182 28.3965 23.1875C28.3691 22.7568 28.3247 22.3193 28.2632 21.875H20.7368C20.6821 22.3125 20.6411 22.7466 20.6138 23.1772C20.5864 23.6079 20.5693 24.0488 20.5625 24.5C20.5625 24.9443 20.5762 25.3818 20.6035 25.8125C20.6309 26.2432 20.6753 26.6807 20.7368 27.125H28.2632ZM15.3125 24.5C15.3125 25.4092 15.439 26.2842 15.6919 27.125H19.4141C19.3594 26.6875 19.3184 26.2534 19.291 25.8228C19.2637 25.3921 19.25 24.9512 19.25 24.5C19.25 24.0557 19.2637 23.6182 19.291 23.1875C19.3184 22.7568 19.3594 22.3193 19.4141 21.875H15.6919C15.439 22.7158 15.3125 23.5908 15.3125 24.5ZM24.5 15.3125C24.165 15.3125 23.854 15.4048 23.5669 15.5894C23.2798 15.7739 23.0098 16.0166 22.7568 16.3174C22.5039 16.6182 22.2852 16.9565 22.1006 17.3325C21.916 17.7085 21.7417 18.0947 21.5776 18.4912C21.4136 18.8877 21.2871 19.2637 21.1982 19.6191C21.1094 19.9746 21.0308 20.2891 20.9624 20.5625H28.0376C27.9829 20.2959 27.9043 19.9814 27.8018 19.6191C27.6992 19.2568 27.5728 18.8809 27.4224 18.4912C27.272 18.1016 27.1011 17.7188 26.9097 17.3428C26.7183 16.9668 26.4961 16.625 26.2432 16.3174C25.9902 16.0098 25.7236 15.7671 25.4434 15.5894C25.1631 15.4116 24.8486 15.3193 24.5 15.3125ZM21.4956 15.8149C20.9214 16.0132 20.3711 16.2695 19.8447 16.584C19.3184 16.8984 18.8296 17.2573 18.3784 17.6606C17.9272 18.064 17.5171 18.5083 17.1479 18.9937C16.7788 19.479 16.4644 20.002 16.2046 20.5625H19.6191C19.7012 20.1523 19.7969 19.7388 19.9062 19.3218C20.0156 18.9048 20.1455 18.4946 20.2959 18.0913C20.4463 17.688 20.624 17.2915 20.8291 16.9019C21.0342 16.5122 21.2563 16.1499 21.4956 15.8149ZM16.2046 28.4375C16.4644 28.9912 16.7788 29.5107 17.1479 29.9961C17.5171 30.4814 17.9272 30.9292 18.3784 31.3394C18.8296 31.7495 19.3184 32.1084 19.8447 32.416C20.3711 32.7236 20.9214 32.98 21.4956 33.1851C21.2495 32.8433 21.0273 32.481 20.8291 32.0981C20.6309 31.7153 20.4565 31.3223 20.3062 30.9189C20.1558 30.5156 20.0225 30.1021 19.9062 29.6782C19.79 29.2544 19.6943 28.8408 19.6191 28.4375H16.2046ZM27.5044 33.1851C28.0786 32.9868 28.6289 32.7305 29.1553 32.416C29.6816 32.1016 30.1704 31.7427 30.6216 31.3394C31.0728 30.936 31.4829 30.4917 31.8521 30.0063C32.2212 29.521 32.5356 28.998 32.7954 28.4375H29.3809C29.2988 28.8477 29.2031 29.2612 29.0938 29.6782C28.9844 30.0952 28.8545 30.5054 28.7041 30.9087C28.5537 31.312 28.376 31.7085 28.1709 32.0981C27.9658 32.4878 27.7437 32.8501 27.5044 33.1851Z" fill="white"/>
</svg>
