<svg width="29" height="38" viewBox="0 0 29 38" fill="none" xmlns="http://www.w3.org/2000/svg">
<path d="M0 2.28001C0 1.02065 1.02025 0 2.2791 0H18.9925L28.4887 7.97998V35.72C28.4887 36.9793 27.4685 38 26.2096 38H2.2791C1.02025 38 0 36.9793 0 35.72V2.28001Z" fill="#26A69A"/>
<path d="M18.9924 0V5.69998C18.9924 6.95933 20.0127 7.97998 21.2715 7.97998H28.4887" fill="#00897B"/>
<path d="M3.75033 18.5945H5.89945L7.07459 21.1607H7.12205L8.36845 18.5945H10.4582L8.24973 22.3725L10.66 26.8257H8.51088L7.09832 23.7732H7.05087L5.6733 26.8257H3.57227L5.89945 22.4551L3.75033 18.5945Z" fill="white"/>
<path d="M11.7753 26.8256V18.5945H13.7464V25.2706H17.308L17.1056 26.8257H11.7753V26.8256Z" fill="white"/>
<path d="M21.2244 27.0275C19.7281 27.0275 18.613 26.5056 17.9358 25.84L18.9329 24.7362C19.5389 25.2705 20.2754 25.5674 21.1538 25.5674C21.9603 25.5674 22.5064 25.1987 22.5064 24.5688C22.5064 23.9751 22.1622 23.7144 21.0226 23.3569C19.1346 22.7632 18.4112 22.0151 18.4112 20.7794C18.4112 19.2588 19.8113 18.3801 21.5212 18.3801C22.7688 18.3801 23.7409 18.772 24.4538 19.4489L23.5273 20.5182C22.9694 20.0557 22.3159 19.8294 21.675 19.8294C20.9391 19.8294 20.4511 20.1032 20.4511 20.625C20.4511 21.1476 20.8197 21.3494 22.0779 21.7525C23.6454 22.2631 24.5594 22.9044 24.5594 24.4131C24.5606 25.9581 23.3029 27.0275 21.2244 27.0275Z" fill="white"/>
</svg>
