<svg width="29" height="38" viewBox="0 0 29 38" fill="none" xmlns="http://www.w3.org/2000/svg">
<path d="M0 2.28001C0 1.02065 1.02025 0 2.2791 0H18.9925L28.4887 7.97998V35.72C28.4887 36.9793 27.4685 38 26.2096 38H2.2791C1.02025 38 0 36.9793 0 35.72V2.28001Z" fill="#F5A342"/>
<path d="M18.9924 0V5.69998C18.9924 6.95933 20.0127 7.97998 21.2715 7.97998H28.4887" fill="#D87806"/>
<path d="M6.37601 25.2593H10.1988L9.99705 26.8268H4.04883V25.3543L7.88356 20.1168H4.41687V18.5962H10.1277V20.0806L6.37601 25.2593Z" fill="white"/>
<path d="M11.5624 18.5945H16.929V20.0308H15.2315V25.3763H16.929V26.8251H11.5624V25.3763H13.2605V20.0308H11.5624V18.5945Z" fill="white"/>
<path d="M21.3919 24.0938H20.5016V26.8256H18.5306V18.5945H21.1307C23.3748 18.5945 24.6568 19.4733 24.6568 21.2788C24.6562 23.2156 23.3386 24.0938 21.3919 24.0938ZM21.1551 19.9957H20.5016V22.6682H21.2257C22.116 22.6682 22.6264 22.2401 22.6264 21.2782C22.6264 20.4119 22.1397 19.9957 21.1551 19.9957Z" fill="white"/>
</svg>
